<?xml version="1.0" encoding="utf-8"?>
<!-- Generator: Adobe Illustrator 21.0.0, SVG Export Plug-In . SVG Version: 6.00 Build 0)  -->
<svg version="1.1" id="Ebene_1" xmlns="http://www.w3.org/2000/svg" xmlns:xlink="http://www.w3.org/1999/xlink" x="0px" y="0px"
	 viewBox="0 0 50 50" style="enable-background:new 0 0 50 50;" xml:space="preserve">
<style type="text/css">
	.st0{fill:#29ABE2;}
	.st1{fill:#EFEFEF;}
</style>
<g id="Ebene_2">
	<circle class="st0" cx="25" cy="25" r="25"/>
	<path class="st1" d="M25,6.7c-4.9,0-8.9,4-8.9,8.9v14.3H20V15.2c0-2.8,2.2-5,5-5s5,2.2,5,5v6.9h3.9v-1.9v-4.5
		C33.9,10.7,29.9,6.7,25,6.7z"/>
	<path class="st1" d="M35.2,20.1H14.8c-0.8,0-1.4,0.6-1.4,1.4v18.3c0,0.8,0.6,1.4,1.4,1.4h20.3c0.8,0,1.4-0.6,1.4-1.4V21.5
		C36.6,20.8,35.9,20.1,35.2,20.1z M27.3,35.2c0,0.2-0.2,0.3-0.3,0.3H23c-0.2,0-0.3-0.2-0.3-0.3l0.8-4.4c-0.7-0.5-1.2-1.3-1.2-2.2
		c0-1.5,1.2-2.7,2.7-2.7s2.7,1.2,2.7,2.7c0,0.9-0.5,1.7-1.2,2.2L27.3,35.2z"/>
</g>
</svg>
